<svg width="22" height="20" viewBox="0 0 22 20" fill="none" xmlns="http://www.w3.org/2000/svg">
<path d="M9.89021 0.859336C10.1901 -0.0609409 11.492 -0.06094 11.7918 0.859337L13.5429 6.23373C13.677 6.64536 14.0608 6.92394 14.4937 6.92394H20.1545C21.1239 6.92394 21.5262 8.16497 20.7412 8.73373L16.1663 12.0484C15.8149 12.303 15.6678 12.7553 15.8022 13.168L17.5508 18.5346C17.8508 19.4554 16.7975 20.2224 16.0133 19.6542L11.4277 16.3318C11.0777 16.0782 10.6043 16.0782 10.2543 16.3318L5.66875 19.6542C4.88449 20.2224 3.8312 19.4554 4.13123 18.5346L5.8798 13.168C6.01425 12.7553 5.86717 12.303 5.51571 12.0484L0.940841 8.73373C0.155834 8.16497 0.558165 6.92394 1.52756 6.92394H7.18832C7.62124 6.92394 8.005 6.64536 8.13912 6.23373L9.89021 0.859336Z" fill="#070707"/>
</svg>
